<mxfile host="app.diagrams.net" modified="2023-04-06T13:56:01.288Z" agent="Mozilla/5.0 (Windows NT 10.0; Win64; x64) AppleWebKit/537.36 (KHTML, like Gecko) Chrome/110.0.0.0 Safari/537.36 OPR/96.0.0.0" etag="M6MRQVWpxs5gOZZk2V85" version="21.1.4" type="github">
  <diagram name="Página-1" id="CBc9ywam2wvhKlgPBt_Q">
    <mxGraphModel dx="1633" dy="758" grid="1" gridSize="10" guides="1" tooltips="1" connect="1" arrows="1" fold="1" page="1" pageScale="1" pageWidth="1169" pageHeight="827" math="0" shadow="0">
      <root>
        <mxCell id="0" />
        <mxCell id="1" parent="0" />
        <mxCell id="wGyYJJHHHQbN9qoSsKe8-5" value="Pessoa" style="swimlane;fontStyle=0;childLayout=stackLayout;horizontal=1;startSize=26;fillColor=none;horizontalStack=0;resizeParent=1;resizeParentMax=0;resizeLast=0;collapsible=1;marginBottom=0;whiteSpace=wrap;html=1;" parent="1" vertex="1">
          <mxGeometry x="307" y="23" width="140" height="100" as="geometry" />
        </mxCell>
        <mxCell id="wGyYJJHHHQbN9qoSsKe8-6" value="+ id;&lt;br&gt;+ Nome;&lt;br&gt;+ endereço;&lt;br&gt;+ telefone;" style="text;strokeColor=none;fillColor=none;align=left;verticalAlign=top;spacingLeft=4;spacingRight=4;overflow=hidden;rotatable=0;points=[[0,0.5],[1,0.5]];portConstraint=eastwest;whiteSpace=wrap;html=1;" parent="wGyYJJHHHQbN9qoSsKe8-5" vertex="1">
          <mxGeometry y="26" width="140" height="74" as="geometry" />
        </mxCell>
        <mxCell id="wGyYJJHHHQbN9qoSsKe8-9" value="Cliente" style="swimlane;fontStyle=0;childLayout=stackLayout;horizontal=1;startSize=26;fillColor=none;horizontalStack=0;resizeParent=1;resizeParentMax=0;resizeLast=0;collapsible=1;marginBottom=0;whiteSpace=wrap;html=1;" parent="1" vertex="1">
          <mxGeometry x="157" y="213" width="140" height="60" as="geometry" />
        </mxCell>
        <mxCell id="wGyYJJHHHQbN9qoSsKe8-10" value="abstract" style="text;strokeColor=none;fillColor=none;align=left;verticalAlign=top;spacingLeft=4;spacingRight=4;overflow=hidden;rotatable=0;points=[[0,0.5],[1,0.5]];portConstraint=eastwest;whiteSpace=wrap;html=1;" parent="wGyYJJHHHQbN9qoSsKe8-9" vertex="1">
          <mxGeometry y="26" width="140" height="34" as="geometry" />
        </mxCell>
        <mxCell id="wGyYJJHHHQbN9qoSsKe8-11" value="Pessoa Física&amp;nbsp;" style="swimlane;fontStyle=0;childLayout=stackLayout;horizontal=1;startSize=26;fillColor=none;horizontalStack=0;resizeParent=1;resizeParentMax=0;resizeLast=0;collapsible=1;marginBottom=0;whiteSpace=wrap;html=1;" parent="1" vertex="1">
          <mxGeometry x="57" y="343" width="140" height="60" as="geometry" />
        </mxCell>
        <mxCell id="wGyYJJHHHQbN9qoSsKe8-12" value="+ cpf;" style="text;strokeColor=none;fillColor=none;align=left;verticalAlign=top;spacingLeft=4;spacingRight=4;overflow=hidden;rotatable=0;points=[[0,0.5],[1,0.5]];portConstraint=eastwest;whiteSpace=wrap;html=1;" parent="wGyYJJHHHQbN9qoSsKe8-11" vertex="1">
          <mxGeometry y="26" width="140" height="34" as="geometry" />
        </mxCell>
        <mxCell id="wGyYJJHHHQbN9qoSsKe8-13" value="Pessoa Jurídica" style="swimlane;fontStyle=0;childLayout=stackLayout;horizontal=1;startSize=26;fillColor=none;horizontalStack=0;resizeParent=1;resizeParentMax=0;resizeLast=0;collapsible=1;marginBottom=0;whiteSpace=wrap;html=1;" parent="1" vertex="1">
          <mxGeometry x="257" y="343" width="140" height="60" as="geometry" />
        </mxCell>
        <mxCell id="wGyYJJHHHQbN9qoSsKe8-14" value="+ CNPJ;" style="text;strokeColor=none;fillColor=none;align=left;verticalAlign=top;spacingLeft=4;spacingRight=4;overflow=hidden;rotatable=0;points=[[0,0.5],[1,0.5]];portConstraint=eastwest;whiteSpace=wrap;html=1;" parent="wGyYJJHHHQbN9qoSsKe8-13" vertex="1">
          <mxGeometry y="26" width="140" height="34" as="geometry" />
        </mxCell>
        <mxCell id="wGyYJJHHHQbN9qoSsKe8-15" value="Funcionário" style="swimlane;fontStyle=0;childLayout=stackLayout;horizontal=1;startSize=26;fillColor=none;horizontalStack=0;resizeParent=1;resizeParentMax=0;resizeLast=0;collapsible=1;marginBottom=0;whiteSpace=wrap;html=1;" parent="1" vertex="1">
          <mxGeometry x="530" y="203" width="140" height="70" as="geometry" />
        </mxCell>
        <mxCell id="wGyYJJHHHQbN9qoSsKe8-16" value="+ cargo;&lt;br&gt;+ Agencia;" style="text;strokeColor=none;fillColor=none;align=left;verticalAlign=top;spacingLeft=4;spacingRight=4;overflow=hidden;rotatable=0;points=[[0,0.5],[1,0.5]];portConstraint=eastwest;whiteSpace=wrap;html=1;" parent="wGyYJJHHHQbN9qoSsKe8-15" vertex="1">
          <mxGeometry y="26" width="140" height="44" as="geometry" />
        </mxCell>
        <mxCell id="wGyYJJHHHQbN9qoSsKe8-17" value="Banco" style="swimlane;fontStyle=0;childLayout=stackLayout;horizontal=1;startSize=26;fillColor=none;horizontalStack=0;resizeParent=1;resizeParentMax=0;resizeLast=0;collapsible=1;marginBottom=0;whiteSpace=wrap;html=1;" parent="1" vertex="1">
          <mxGeometry x="830" y="41" width="140" height="70" as="geometry" />
        </mxCell>
        <mxCell id="wGyYJJHHHQbN9qoSsKe8-18" value="+ Nome;&lt;br&gt;+ Código;" style="text;strokeColor=none;fillColor=none;align=left;verticalAlign=top;spacingLeft=4;spacingRight=4;overflow=hidden;rotatable=0;points=[[0,0.5],[1,0.5]];portConstraint=eastwest;whiteSpace=wrap;html=1;" parent="wGyYJJHHHQbN9qoSsKe8-17" vertex="1">
          <mxGeometry y="26" width="140" height="44" as="geometry" />
        </mxCell>
        <mxCell id="wGyYJJHHHQbN9qoSsKe8-19" value="Agência" style="swimlane;fontStyle=0;childLayout=stackLayout;horizontal=1;startSize=26;fillColor=none;horizontalStack=0;resizeParent=1;resizeParentMax=0;resizeLast=0;collapsible=1;marginBottom=0;whiteSpace=wrap;html=1;" parent="1" vertex="1">
          <mxGeometry x="830" y="167" width="140" height="80" as="geometry" />
        </mxCell>
        <mxCell id="wGyYJJHHHQbN9qoSsKe8-20" value="+ Número;&lt;br&gt;+ endereço;&lt;br&gt;+ telefone;" style="text;strokeColor=none;fillColor=none;align=left;verticalAlign=top;spacingLeft=4;spacingRight=4;overflow=hidden;rotatable=0;points=[[0,0.5],[1,0.5]];portConstraint=eastwest;whiteSpace=wrap;html=1;" parent="wGyYJJHHHQbN9qoSsKe8-19" vertex="1">
          <mxGeometry y="26" width="140" height="54" as="geometry" />
        </mxCell>
        <mxCell id="wGyYJJHHHQbN9qoSsKe8-21" value="Conta" style="swimlane;fontStyle=0;childLayout=stackLayout;horizontal=1;startSize=26;fillColor=none;horizontalStack=0;resizeParent=1;resizeParentMax=0;resizeLast=0;collapsible=1;marginBottom=0;whiteSpace=wrap;html=1;" parent="1" vertex="1">
          <mxGeometry x="830" y="305" width="140" height="60" as="geometry" />
        </mxCell>
        <mxCell id="wGyYJJHHHQbN9qoSsKe8-22" value="+ Número;" style="text;strokeColor=none;fillColor=none;align=left;verticalAlign=top;spacingLeft=4;spacingRight=4;overflow=hidden;rotatable=0;points=[[0,0.5],[1,0.5]];portConstraint=eastwest;whiteSpace=wrap;html=1;" parent="wGyYJJHHHQbN9qoSsKe8-21" vertex="1">
          <mxGeometry y="26" width="140" height="34" as="geometry" />
        </mxCell>
        <mxCell id="wGyYJJHHHQbN9qoSsKe8-23" value="Transações" style="swimlane;fontStyle=0;childLayout=stackLayout;horizontal=1;startSize=26;fillColor=none;horizontalStack=0;resizeParent=1;resizeParentMax=0;resizeLast=0;collapsible=1;marginBottom=0;whiteSpace=wrap;html=1;" parent="1" vertex="1">
          <mxGeometry x="270" y="501" width="140" height="130" as="geometry" />
        </mxCell>
        <mxCell id="wGyYJJHHHQbN9qoSsKe8-24" value="+ idOrigem;&lt;br&gt;+ idDestino;&lt;br&gt;+ Tipo;&lt;br&gt;+ Data;&lt;br&gt;+ Valor;&lt;br&gt;+ idTransação;" style="text;strokeColor=none;fillColor=none;align=left;verticalAlign=top;spacingLeft=4;spacingRight=4;overflow=hidden;rotatable=0;points=[[0,0.5],[1,0.5]];portConstraint=eastwest;whiteSpace=wrap;html=1;" parent="wGyYJJHHHQbN9qoSsKe8-23" vertex="1">
          <mxGeometry y="26" width="140" height="104" as="geometry" />
        </mxCell>
        <mxCell id="S7m789a0E0k9-BnDdS40-1" value="Extends" style="endArrow=block;endSize=16;endFill=0;html=1;rounded=0;exitX=0.443;exitY=0;exitDx=0;exitDy=0;exitPerimeter=0;" parent="1" source="wGyYJJHHHQbN9qoSsKe8-11" target="wGyYJJHHHQbN9qoSsKe8-10" edge="1">
          <mxGeometry width="160" relative="1" as="geometry">
            <mxPoint x="587" y="253" as="sourcePoint" />
            <mxPoint x="747" y="253" as="targetPoint" />
          </mxGeometry>
        </mxCell>
        <mxCell id="S7m789a0E0k9-BnDdS40-2" value="Extends" style="endArrow=block;endSize=16;endFill=0;html=1;rounded=0;exitX=0.5;exitY=0;exitDx=0;exitDy=0;entryX=0.793;entryY=1;entryDx=0;entryDy=0;entryPerimeter=0;" parent="1" source="wGyYJJHHHQbN9qoSsKe8-13" target="wGyYJJHHHQbN9qoSsKe8-10" edge="1">
          <mxGeometry width="160" relative="1" as="geometry">
            <mxPoint x="497" y="273" as="sourcePoint" />
            <mxPoint x="657" y="273" as="targetPoint" />
          </mxGeometry>
        </mxCell>
        <mxCell id="S7m789a0E0k9-BnDdS40-3" value="Extends" style="endArrow=block;endSize=16;endFill=0;html=1;rounded=0;exitX=0.5;exitY=0;exitDx=0;exitDy=0;entryX=0.223;entryY=0.994;entryDx=0;entryDy=0;entryPerimeter=0;" parent="1" source="wGyYJJHHHQbN9qoSsKe8-9" target="wGyYJJHHHQbN9qoSsKe8-6" edge="1">
          <mxGeometry width="160" relative="1" as="geometry">
            <mxPoint x="477" y="321" as="sourcePoint" />
            <mxPoint x="637" y="321" as="targetPoint" />
          </mxGeometry>
        </mxCell>
        <mxCell id="S7m789a0E0k9-BnDdS40-7" value="Extends" style="endArrow=block;endSize=16;endFill=0;html=1;rounded=0;exitX=0.25;exitY=0;exitDx=0;exitDy=0;" parent="1" source="wGyYJJHHHQbN9qoSsKe8-15" target="wGyYJJHHHQbN9qoSsKe8-6" edge="1">
          <mxGeometry width="160" relative="1" as="geometry">
            <mxPoint x="477" y="253" as="sourcePoint" />
            <mxPoint x="637" y="253" as="targetPoint" />
          </mxGeometry>
        </mxCell>
        <mxCell id="S7m789a0E0k9-BnDdS40-8" value="" style="endArrow=open;html=1;endSize=12;startArrow=diamondThin;startSize=14;startFill=0;edgeStyle=orthogonalEdgeStyle;rounded=0;entryX=0.5;entryY=1.008;entryDx=0;entryDy=0;entryPerimeter=0;" parent="1" source="wGyYJJHHHQbN9qoSsKe8-19" target="wGyYJJHHHQbN9qoSsKe8-18" edge="1">
          <mxGeometry relative="1" as="geometry">
            <mxPoint x="730" y="231" as="sourcePoint" />
            <mxPoint x="890" y="231" as="targetPoint" />
          </mxGeometry>
        </mxCell>
        <mxCell id="S7m789a0E0k9-BnDdS40-9" value="1...*" style="edgeLabel;resizable=0;html=1;align=left;verticalAlign=top;" parent="S7m789a0E0k9-BnDdS40-8" connectable="0" vertex="1">
          <mxGeometry x="-1" relative="1" as="geometry">
            <mxPoint x="10" y="-30" as="offset" />
          </mxGeometry>
        </mxCell>
        <mxCell id="S7m789a0E0k9-BnDdS40-10" value="1" style="edgeLabel;resizable=0;html=1;align=right;verticalAlign=top;" parent="S7m789a0E0k9-BnDdS40-8" connectable="0" vertex="1">
          <mxGeometry x="1" relative="1" as="geometry">
            <mxPoint x="-10" as="offset" />
          </mxGeometry>
        </mxCell>
        <mxCell id="S7m789a0E0k9-BnDdS40-11" value="" style="endArrow=open;html=1;endSize=12;startArrow=diamondThin;startSize=14;startFill=0;edgeStyle=orthogonalEdgeStyle;rounded=0;exitX=0.5;exitY=0;exitDx=0;exitDy=0;entryX=0.501;entryY=1.011;entryDx=0;entryDy=0;entryPerimeter=0;" parent="1" source="wGyYJJHHHQbN9qoSsKe8-21" target="wGyYJJHHHQbN9qoSsKe8-20" edge="1">
          <mxGeometry relative="1" as="geometry">
            <mxPoint x="770" y="261" as="sourcePoint" />
            <mxPoint x="930" y="261" as="targetPoint" />
          </mxGeometry>
        </mxCell>
        <mxCell id="S7m789a0E0k9-BnDdS40-12" value="1...*" style="edgeLabel;resizable=0;html=1;align=left;verticalAlign=top;" parent="S7m789a0E0k9-BnDdS40-11" connectable="0" vertex="1">
          <mxGeometry x="-1" relative="1" as="geometry">
            <mxPoint x="10" y="-24" as="offset" />
          </mxGeometry>
        </mxCell>
        <mxCell id="S7m789a0E0k9-BnDdS40-13" value="1" style="edgeLabel;resizable=0;html=1;align=right;verticalAlign=top;" parent="S7m789a0E0k9-BnDdS40-11" connectable="0" vertex="1">
          <mxGeometry x="1" relative="1" as="geometry">
            <mxPoint x="-10" as="offset" />
          </mxGeometry>
        </mxCell>
        <mxCell id="S7m789a0E0k9-BnDdS40-14" value="Extrato" style="swimlane;fontStyle=1;align=center;verticalAlign=top;childLayout=stackLayout;horizontal=1;startSize=26;horizontalStack=0;resizeParent=1;resizeParentMax=0;resizeLast=0;collapsible=1;marginBottom=0;whiteSpace=wrap;html=1;" parent="1" vertex="1">
          <mxGeometry x="370" y="671" width="160" height="100" as="geometry" />
        </mxCell>
        <mxCell id="S7m789a0E0k9-BnDdS40-15" value="+ Extrato;" style="text;strokeColor=none;fillColor=none;align=left;verticalAlign=top;spacingLeft=4;spacingRight=4;overflow=hidden;rotatable=0;points=[[0,0.5],[1,0.5]];portConstraint=eastwest;whiteSpace=wrap;html=1;" parent="S7m789a0E0k9-BnDdS40-14" vertex="1">
          <mxGeometry y="26" width="160" height="26" as="geometry" />
        </mxCell>
        <mxCell id="S7m789a0E0k9-BnDdS40-16" value="" style="line;strokeWidth=1;fillColor=none;align=left;verticalAlign=middle;spacingTop=-1;spacingLeft=3;spacingRight=3;rotatable=0;labelPosition=right;points=[];portConstraint=eastwest;strokeColor=inherit;" parent="S7m789a0E0k9-BnDdS40-14" vertex="1">
          <mxGeometry y="52" width="160" height="8" as="geometry" />
        </mxCell>
        <mxCell id="S7m789a0E0k9-BnDdS40-17" value="+ mostrarTransacoes();&lt;br&gt;+ mostrarPorPeriodo();" style="text;strokeColor=none;fillColor=none;align=left;verticalAlign=top;spacingLeft=4;spacingRight=4;overflow=hidden;rotatable=0;points=[[0,0.5],[1,0.5]];portConstraint=eastwest;whiteSpace=wrap;html=1;" parent="S7m789a0E0k9-BnDdS40-14" vertex="1">
          <mxGeometry y="60" width="160" height="40" as="geometry" />
        </mxCell>
        <mxCell id="S7m789a0E0k9-BnDdS40-18" value="Pix" style="swimlane;fontStyle=1;align=center;verticalAlign=top;childLayout=stackLayout;horizontal=1;startSize=26;horizontalStack=0;resizeParent=1;resizeParentMax=0;resizeLast=0;collapsible=1;marginBottom=0;whiteSpace=wrap;html=1;" parent="1" vertex="1">
          <mxGeometry x="810" y="701" width="160" height="104" as="geometry" />
        </mxCell>
        <mxCell id="S7m789a0E0k9-BnDdS40-20" value="" style="line;strokeWidth=1;fillColor=none;align=left;verticalAlign=middle;spacingTop=-1;spacingLeft=3;spacingRight=3;rotatable=0;labelPosition=right;points=[];portConstraint=eastwest;strokeColor=inherit;" parent="S7m789a0E0k9-BnDdS40-18" vertex="1">
          <mxGeometry y="26" width="160" height="8" as="geometry" />
        </mxCell>
        <mxCell id="S7m789a0E0k9-BnDdS40-21" value="+ conferirCliente;&lt;br&gt;+ transferirCliente;&lt;br&gt;+ gerarChave;&lt;br&gt;+ conferirChave;" style="text;strokeColor=none;fillColor=none;align=left;verticalAlign=top;spacingLeft=4;spacingRight=4;overflow=hidden;rotatable=0;points=[[0,0.5],[1,0.5]];portConstraint=eastwest;whiteSpace=wrap;html=1;" parent="S7m789a0E0k9-BnDdS40-18" vertex="1">
          <mxGeometry y="34" width="160" height="70" as="geometry" />
        </mxCell>
        <mxCell id="S7m789a0E0k9-BnDdS40-22" value="Emprestimo" style="swimlane;fontStyle=1;align=center;verticalAlign=top;childLayout=stackLayout;horizontal=1;startSize=26;horizontalStack=0;resizeParent=1;resizeParentMax=0;resizeLast=0;collapsible=1;marginBottom=0;whiteSpace=wrap;html=1;" parent="1" vertex="1">
          <mxGeometry x="910" y="404" width="180" height="120" as="geometry" />
        </mxCell>
        <mxCell id="S7m789a0E0k9-BnDdS40-23" value="+ field: type" style="text;strokeColor=none;fillColor=none;align=left;verticalAlign=top;spacingLeft=4;spacingRight=4;overflow=hidden;rotatable=0;points=[[0,0.5],[1,0.5]];portConstraint=eastwest;whiteSpace=wrap;html=1;" parent="S7m789a0E0k9-BnDdS40-22" vertex="1">
          <mxGeometry y="26" width="180" height="26" as="geometry" />
        </mxCell>
        <mxCell id="S7m789a0E0k9-BnDdS40-24" value="" style="line;strokeWidth=1;fillColor=none;align=left;verticalAlign=middle;spacingTop=-1;spacingLeft=3;spacingRight=3;rotatable=0;labelPosition=right;points=[];portConstraint=eastwest;strokeColor=inherit;" parent="S7m789a0E0k9-BnDdS40-22" vertex="1">
          <mxGeometry y="52" width="180" height="8" as="geometry" />
        </mxCell>
        <mxCell id="S7m789a0E0k9-BnDdS40-25" value="+ consultar();&lt;br&gt;+ contratar(Saldo.depositar);" style="text;strokeColor=none;fillColor=none;align=left;verticalAlign=top;spacingLeft=4;spacingRight=4;overflow=hidden;rotatable=0;points=[[0,0.5],[1,0.5]];portConstraint=eastwest;whiteSpace=wrap;html=1;" parent="S7m789a0E0k9-BnDdS40-22" vertex="1">
          <mxGeometry y="60" width="180" height="60" as="geometry" />
        </mxCell>
        <mxCell id="S7m789a0E0k9-BnDdS40-26" value="Pagamentos" style="swimlane;fontStyle=1;align=center;verticalAlign=top;childLayout=stackLayout;horizontal=1;startSize=26;horizontalStack=0;resizeParent=1;resizeParentMax=0;resizeLast=0;collapsible=1;marginBottom=0;whiteSpace=wrap;html=1;" parent="1" vertex="1">
          <mxGeometry x="860" y="541" width="160" height="120" as="geometry" />
        </mxCell>
        <mxCell id="S7m789a0E0k9-BnDdS40-27" value="+ field: type" style="text;strokeColor=none;fillColor=none;align=left;verticalAlign=top;spacingLeft=4;spacingRight=4;overflow=hidden;rotatable=0;points=[[0,0.5],[1,0.5]];portConstraint=eastwest;whiteSpace=wrap;html=1;" parent="S7m789a0E0k9-BnDdS40-26" vertex="1">
          <mxGeometry y="26" width="160" height="26" as="geometry" />
        </mxCell>
        <mxCell id="S7m789a0E0k9-BnDdS40-28" value="" style="line;strokeWidth=1;fillColor=none;align=left;verticalAlign=middle;spacingTop=-1;spacingLeft=3;spacingRight=3;rotatable=0;labelPosition=right;points=[];portConstraint=eastwest;strokeColor=inherit;" parent="S7m789a0E0k9-BnDdS40-26" vertex="1">
          <mxGeometry y="52" width="160" height="8" as="geometry" />
        </mxCell>
        <mxCell id="S7m789a0E0k9-BnDdS40-29" value="+ sacar(Saldo.sacar);&lt;br&gt;+ conferirSaldo;&lt;br style=&quot;border-color: var(--border-color);&quot;&gt;+ enviar(Saldo.transferir);" style="text;strokeColor=none;fillColor=none;align=left;verticalAlign=top;spacingLeft=4;spacingRight=4;overflow=hidden;rotatable=0;points=[[0,0.5],[1,0.5]];portConstraint=eastwest;whiteSpace=wrap;html=1;" parent="S7m789a0E0k9-BnDdS40-26" vertex="1">
          <mxGeometry y="60" width="160" height="60" as="geometry" />
        </mxCell>
        <mxCell id="S7m789a0E0k9-BnDdS40-30" value="Saldo" style="swimlane;fontStyle=1;align=center;verticalAlign=top;childLayout=stackLayout;horizontal=1;startSize=26;horizontalStack=0;resizeParent=1;resizeParentMax=0;resizeLast=0;collapsible=1;marginBottom=0;whiteSpace=wrap;html=1;" parent="1" vertex="1">
          <mxGeometry x="550" y="391" width="160" height="170" as="geometry" />
        </mxCell>
        <mxCell id="S7m789a0E0k9-BnDdS40-31" value="+ SaldoConta;" style="text;strokeColor=none;fillColor=none;align=left;verticalAlign=top;spacingLeft=4;spacingRight=4;overflow=hidden;rotatable=0;points=[[0,0.5],[1,0.5]];portConstraint=eastwest;whiteSpace=wrap;html=1;" parent="S7m789a0E0k9-BnDdS40-30" vertex="1">
          <mxGeometry y="26" width="160" height="34" as="geometry" />
        </mxCell>
        <mxCell id="S7m789a0E0k9-BnDdS40-32" value="" style="line;strokeWidth=1;fillColor=none;align=left;verticalAlign=middle;spacingTop=-1;spacingLeft=3;spacingRight=3;rotatable=0;labelPosition=right;points=[];portConstraint=eastwest;strokeColor=inherit;" parent="S7m789a0E0k9-BnDdS40-30" vertex="1">
          <mxGeometry y="60" width="160" height="8" as="geometry" />
        </mxCell>
        <mxCell id="S7m789a0E0k9-BnDdS40-33" value="+ mostrar();&lt;br&gt;+ sacar();&lt;br&gt;+ transferir();&lt;br&gt;+ depositar();&lt;br&gt;+ gerarExtrato();&lt;br&gt;+ consultarSaldo();" style="text;strokeColor=none;fillColor=none;align=left;verticalAlign=top;spacingLeft=4;spacingRight=4;overflow=hidden;rotatable=0;points=[[0,0.5],[1,0.5]];portConstraint=eastwest;whiteSpace=wrap;html=1;" parent="S7m789a0E0k9-BnDdS40-30" vertex="1">
          <mxGeometry y="68" width="160" height="102" as="geometry" />
        </mxCell>
        <mxCell id="S7m789a0E0k9-BnDdS40-34" value="Cartão Débito" style="swimlane;fontStyle=1;align=center;verticalAlign=top;childLayout=stackLayout;horizontal=1;startSize=26;horizontalStack=0;resizeParent=1;resizeParentMax=0;resizeLast=0;collapsible=1;marginBottom=0;whiteSpace=wrap;html=1;" parent="1" vertex="1">
          <mxGeometry x="600" y="661" width="160" height="120" as="geometry" />
        </mxCell>
        <mxCell id="S7m789a0E0k9-BnDdS40-35" value="+ numeroCartao;" style="text;strokeColor=none;fillColor=none;align=left;verticalAlign=top;spacingLeft=4;spacingRight=4;overflow=hidden;rotatable=0;points=[[0,0.5],[1,0.5]];portConstraint=eastwest;whiteSpace=wrap;html=1;" parent="S7m789a0E0k9-BnDdS40-34" vertex="1">
          <mxGeometry y="26" width="160" height="26" as="geometry" />
        </mxCell>
        <mxCell id="S7m789a0E0k9-BnDdS40-36" value="" style="line;strokeWidth=1;fillColor=none;align=left;verticalAlign=middle;spacingTop=-1;spacingLeft=3;spacingRight=3;rotatable=0;labelPosition=right;points=[];portConstraint=eastwest;strokeColor=inherit;" parent="S7m789a0E0k9-BnDdS40-34" vertex="1">
          <mxGeometry y="52" width="160" height="8" as="geometry" />
        </mxCell>
        <mxCell id="S7m789a0E0k9-BnDdS40-37" value="+ criar();&lt;br&gt;+ sacar(Saldo.sacar);&lt;br&gt;+ consultarCartao();" style="text;strokeColor=none;fillColor=none;align=left;verticalAlign=top;spacingLeft=4;spacingRight=4;overflow=hidden;rotatable=0;points=[[0,0.5],[1,0.5]];portConstraint=eastwest;whiteSpace=wrap;html=1;" parent="S7m789a0E0k9-BnDdS40-34" vertex="1">
          <mxGeometry y="60" width="160" height="60" as="geometry" />
        </mxCell>
        <mxCell id="S7m789a0E0k9-BnDdS40-39" value="" style="endArrow=open;html=1;endSize=12;startArrow=diamondThin;startSize=14;startFill=1;edgeStyle=orthogonalEdgeStyle;align=left;verticalAlign=bottom;rounded=0;exitX=0.5;exitY=0;exitDx=0;exitDy=0;entryX=-0.008;entryY=0.922;entryDx=0;entryDy=0;entryPerimeter=0;" parent="1" source="S7m789a0E0k9-BnDdS40-14" target="S7m789a0E0k9-BnDdS40-33" edge="1">
          <mxGeometry x="-1" y="3" relative="1" as="geometry">
            <mxPoint x="770" y="721" as="sourcePoint" />
            <mxPoint x="930" y="721" as="targetPoint" />
          </mxGeometry>
        </mxCell>
        <mxCell id="S7m789a0E0k9-BnDdS40-41" value="" style="endArrow=open;html=1;endSize=12;startArrow=diamondThin;startSize=14;startFill=1;edgeStyle=orthogonalEdgeStyle;align=left;verticalAlign=bottom;rounded=0;exitX=0.13;exitY=0.013;exitDx=0;exitDy=0;entryX=0.623;entryY=0.997;entryDx=0;entryDy=0;entryPerimeter=0;exitPerimeter=0;" parent="1" source="S7m789a0E0k9-BnDdS40-34" target="S7m789a0E0k9-BnDdS40-33" edge="1">
          <mxGeometry x="-1" y="3" relative="1" as="geometry">
            <mxPoint x="660" y="781" as="sourcePoint" />
            <mxPoint x="820" y="781" as="targetPoint" />
          </mxGeometry>
        </mxCell>
        <mxCell id="S7m789a0E0k9-BnDdS40-44" value="" style="endArrow=open;html=1;endSize=12;startArrow=diamondThin;startSize=14;startFill=1;edgeStyle=orthogonalEdgeStyle;align=left;verticalAlign=bottom;rounded=0;exitX=0.005;exitY=0.205;exitDx=0;exitDy=0;exitPerimeter=0;entryX=1;entryY=0.5;entryDx=0;entryDy=0;" parent="1" source="S7m789a0E0k9-BnDdS40-27" target="S7m789a0E0k9-BnDdS40-33" edge="1">
          <mxGeometry x="-1" y="3" relative="1" as="geometry">
            <mxPoint x="740" y="751" as="sourcePoint" />
            <mxPoint x="900" y="751" as="targetPoint" />
          </mxGeometry>
        </mxCell>
        <mxCell id="S7m789a0E0k9-BnDdS40-45" value="" style="endArrow=open;html=1;endSize=12;startArrow=diamondThin;startSize=14;startFill=1;edgeStyle=orthogonalEdgeStyle;align=left;verticalAlign=bottom;rounded=0;exitX=0.006;exitY=0.05;exitDx=0;exitDy=0;exitPerimeter=0;entryX=1;entryY=0.5;entryDx=0;entryDy=0;" parent="1" source="S7m789a0E0k9-BnDdS40-25" target="S7m789a0E0k9-BnDdS40-31" edge="1">
          <mxGeometry x="-1" y="3" relative="1" as="geometry">
            <mxPoint x="770" y="571" as="sourcePoint" />
            <mxPoint x="930" y="571" as="targetPoint" />
          </mxGeometry>
        </mxCell>
        <mxCell id="S7m789a0E0k9-BnDdS40-46" value="" style="endArrow=open;html=1;endSize=12;startArrow=diamondThin;startSize=14;startFill=1;edgeStyle=orthogonalEdgeStyle;align=left;verticalAlign=bottom;rounded=0;entryX=0;entryY=0.5;entryDx=0;entryDy=0;exitX=1;exitY=0.25;exitDx=0;exitDy=0;" parent="1" source="wGyYJJHHHQbN9qoSsKe8-23" target="S7m789a0E0k9-BnDdS40-31" edge="1">
          <mxGeometry x="-1" y="3" relative="1" as="geometry">
            <mxPoint x="530" y="281" as="sourcePoint" />
            <mxPoint x="690" y="281" as="targetPoint" />
          </mxGeometry>
        </mxCell>
        <mxCell id="S7m789a0E0k9-BnDdS40-49" value="Use" style="endArrow=open;endSize=12;dashed=1;html=1;rounded=0;exitX=0.054;exitY=-0.024;exitDx=0;exitDy=0;exitPerimeter=0;entryX=1;entryY=0.5;entryDx=0;entryDy=0;" parent="1" source="S7m789a0E0k9-BnDdS40-30" target="wGyYJJHHHQbN9qoSsKe8-10" edge="1">
          <mxGeometry width="160" relative="1" as="geometry">
            <mxPoint x="480" y="251" as="sourcePoint" />
            <mxPoint x="640" y="251" as="targetPoint" />
          </mxGeometry>
        </mxCell>
        <mxCell id="S7m789a0E0k9-BnDdS40-50" value="Use" style="endArrow=open;endSize=12;dashed=1;html=1;rounded=0;exitX=0.828;exitY=0.01;exitDx=0;exitDy=0;exitPerimeter=0;entryX=0;entryY=0.5;entryDx=0;entryDy=0;" parent="1" source="S7m789a0E0k9-BnDdS40-30" target="wGyYJJHHHQbN9qoSsKe8-22" edge="1">
          <mxGeometry width="160" relative="1" as="geometry">
            <mxPoint x="480" y="251" as="sourcePoint" />
            <mxPoint x="640" y="251" as="targetPoint" />
          </mxGeometry>
        </mxCell>
        <mxCell id="S7m789a0E0k9-BnDdS40-51" value="1" style="endArrow=open;html=1;endSize=12;startArrow=diamondThin;startSize=14;startFill=1;edgeStyle=orthogonalEdgeStyle;align=left;verticalAlign=bottom;rounded=0;exitX=-0.006;exitY=-0.007;exitDx=0;exitDy=0;exitPerimeter=0;entryX=1.005;entryY=0.088;entryDx=0;entryDy=0;entryPerimeter=0;" parent="1" source="wGyYJJHHHQbN9qoSsKe8-22" target="wGyYJJHHHQbN9qoSsKe8-10" edge="1">
          <mxGeometry x="-1" y="3" relative="1" as="geometry">
            <mxPoint x="480" y="251" as="sourcePoint" />
            <mxPoint x="640" y="251" as="targetPoint" />
            <Array as="points">
              <mxPoint x="480" y="331" />
              <mxPoint x="480" y="242" />
            </Array>
          </mxGeometry>
        </mxCell>
        <mxCell id="S7m789a0E0k9-BnDdS40-52" value="Extends" style="endArrow=block;endSize=16;endFill=0;html=1;rounded=0;exitX=0.335;exitY=0.008;exitDx=0;exitDy=0;exitPerimeter=0;" parent="1" source="S7m789a0E0k9-BnDdS40-18" target="S7m789a0E0k9-BnDdS40-29" edge="1">
          <mxGeometry width="160" relative="1" as="geometry">
            <mxPoint x="800" y="741" as="sourcePoint" />
            <mxPoint x="960" y="741" as="targetPoint" />
          </mxGeometry>
        </mxCell>
      </root>
    </mxGraphModel>
  </diagram>
</mxfile>
